<?xml version="1.0" encoding="UTF-8"?>
<!DOCTYPE svg PUBLIC "-//W3C//DTD SVG 1.1//EN" "http://www.w3.org/Graphics/SVG/1.1/DTD/svg11.dtd">
<!-- Creator: CorelDRAW 2020 (64-Bit) -->
<svg xmlns="http://www.w3.org/2000/svg" xml:space="preserve" width="2421px" height="741px" version="1.1" shape-rendering="geometricPrecision" text-rendering="geometricPrecision" image-rendering="optimizeQuality" fill-rule="evenodd" clip-rule="evenodd"
viewBox="0 0 2421 740.92"
 xmlns:xlink="http://www.w3.org/1999/xlink"
 xmlns:xodm="http://www.corel.com/coreldraw/odm/2003">
 <g id="Capa_x0020_1">
  <metadata id="CorelCorpID_0Corel-Layer"/>
  <path d="M496.68 79.69c31.02,-9.12 39.96,33.57 14.69,41.31 -29.93,9.15 -41.01,-33.57 -14.69,-41.31zm47.12 30.29c5.09,-22.83 -12.1,-44.27 -29.64,-47.81 -23.9,-4.83 -44.03,9.09 -49.27,27.26 -15.74,54.56 66.92,74.35 78.91,20.55zm54.22 -28.44c29.39,-12.79 43.4,31.62 18.31,40.16 -30.87,10.5 -43.4,-29.24 -18.31,-40.16zm-30.98 26.31c7.86,47.5 85.86,44.05 79.48,-14.5 -2.19,-20.03 -23.6,-37.35 -48.16,-32.73 -19.81,3.73 -35.4,22.56 -31.32,47.23zm-466.38 -29.2l8.11 -0.37 197.93 0.06 7.75 0.36 0.24 43.98 -214.09 0.74 0.06 -44.77zm-16.95 62.98l247.83 0.53 -0.04 -80.14 -247.43 -0.55 -0.36 80.16zm116.98 232.32c0.49,23.2 14.19,43.25 21.26,64.65l24.07 -11.88 -2.66 52.37c33.54,11.74 34.29,-17.78 60.46,-24.09 35.45,-8.55 40.02,20.43 67.47,29.13 63.1,-41.15 40.41,-43.15 85.34,-27.88 9.28,-10.52 30.65,-37.94 36.27,-50.79 -4.71,-7.77 -60.62,-70.38 -74.68,-68.72 -21.63,9.52 -22.84,26.98 -40.58,43.6 -16.88,15.81 -25.31,30.72 -61.61,23.05l32.49 -9.41c-20.68,-10.51 -30.7,-11.64 -42.51,-27.3 -31.54,-41.86 -3.38,-71.63 -105.32,7.27zm-35.79 110.9c-59.11,-206.05 226.27,-359.36 367.98,-182.93 23.21,28.9 71.32,135.07 38.95,182.11 -17.41,-7.69 -21,-28.65 -48.69,-18.43 -20.55,7.58 -20.59,28.2 -44.84,27.05 -21.81,-1.03 -26.69,-22.75 -44.77,-27.8 -25.27,-7.05 -32.99,14.63 -46.79,22.93 -45,27.07 -50.01,-54.18 -96.78,-11.77 -52.62,47.72 -40.78,-16.11 -99.64,-12.19 -11.28,13.41 -10.27,15.44 -25.42,21.03zm170.2 -286.61c-130.32,17.25 -221.52,134.85 -202.66,277.96 14.84,112.61 137.7,221.56 273.03,196.61 127.16,-23.45 219.25,-124.58 200.85,-277.57 -13.99,-116.32 -133.9,-215.17 -271.22,-197zm-287.04 -22.25l634.59 -0.02 -0.63 366.05 0 162.08 -2.87 0 -681.05 0 57.45 0.13 -7.97 -0.77 0.48 -527.47zm-0.02 -137.09l18.17 0 612.94 0 3.5 0 -0.17 122.07 -634.42 0 -0.02 -122.07zm-18.74 681.52l19.88 0 647 0 7.08 0 1.43 -698.39 -675.4 0 0.01 698.39z"/>
  <path id="Master_x0020_Clean" fill-rule="nonzero" d="M944.78 88.44l28.87 0 0 307.64 -30.65 0 0 -203.07 -34.08 102.84 -24.4 0 -34.48 -99.8 0 200.03 -30.65 0 0 -307.64 29.07 0 48.46 141.89 47.86 -141.89zm135.55 0l59.68 307.64 -33.07 0 -12.9 -65.95 -60.7 0 -12.7 65.95 -33.28 0 59.69 -307.64 33.28 0zm2.21 181.81l-18.75 -96.76 -18.75 96.76 37.5 0zm162.33 -32.55c5.65,7.23 9.95,16.49 12.91,27.77 2.96,11.29 4.44,24.3 4.44,39.06 0,13.88 -1.55,26.83 -4.64,38.83 -3.09,12.01 -7.46,22.64 -13.11,31.89 -5.11,8.39 -10.92,14.83 -17.44,19.31 -6.52,4.49 -13.41,6.87 -20.67,7.16 -7.26,0 -14.18,-2.17 -20.77,-6.51 -6.59,-4.34 -12.44,-10.84 -17.54,-19.52 -7.67,-12.44 -12.91,-27.49 -15.73,-45.13l28.23 -28.2c0,2.89 0.47,6.5 1.41,10.84 0.94,4.34 2.42,8.54 4.44,12.59 2.01,4.05 4.63,7.52 7.86,10.41 3.23,2.89 7.19,4.34 11.9,4.34 3.76,0 7.09,-1.01 9.98,-3.04 2.89,-2.02 5.31,-4.55 7.26,-7.59 1.95,-3.04 3.43,-6.51 4.44,-10.41 1,-3.91 1.51,-7.89 1.51,-11.94 0,-4.62 -0.71,-8.97 -2.12,-13.02 -1.41,-4.04 -3.6,-7.23 -6.55,-9.54 -5.38,-4.05 -11.06,-7.45 -17.04,-10.2 -5.99,-2.74 -11.8,-6.22 -17.45,-10.41 -5.64,-4.2 -10.89,-9.76 -15.72,-16.71 -4.84,-6.94 -8.68,-16.63 -11.5,-29.07 -2.55,-10.99 -3.83,-22.71 -3.83,-35.15 0,-13.88 1.51,-27.33 4.54,-40.35 3.02,-13.02 7.16,-24.01 12.4,-32.98 4.97,-8.38 10.55,-14.82 16.74,-19.31 6.18,-4.48 12.7,-6.72 19.56,-6.72 6.85,0 13.41,2.17 19.66,6.51 6.25,4.34 11.86,10.7 16.83,19.09 4.85,7.81 8.68,16.92 11.5,27.34l-22.99 33.84c-2.82,-8.39 -6.35,-15.11 -10.59,-20.18 -4.23,-5.06 -8.97,-7.59 -14.21,-7.59 -7.26,0 -12.87,3.47 -16.84,10.41 -3.97,6.95 -5.95,16.06 -5.95,27.34 0,5.21 1.11,9.84 3.33,13.89 2.22,4.05 5.11,7.66 8.67,10.84 3.56,3.19 7.56,6.01 12,8.47 4.43,2.45 8.84,4.91 13.21,7.37 4.37,2.46 8.5,4.99 12.4,7.59 3.9,2.61 7.05,5.5 9.47,8.68zm28.44 -149.26l103.65 0 0 59.88 -36.5 0 0 247.76 -30.65 0 0 -247.76 -36.5 0 0 -59.88zm117.76 0l89.34 0 0 59.88 -58.68 0 0 55.54 51.62 0 0 59.88 -51.62 0 0 72.46 58.68 0 0 59.88 -89.34 0 0 -307.64zm211.34 91.55c0,9.84 -0.64,19.17 -1.92,27.99 -1.28,8.82 -3.06,16.92 -5.34,24.3 -2.29,7.38 -5.04,13.88 -8.27,19.53 -3.23,5.64 -6.72,10.19 -10.49,13.66l47.39 130.61 -35.69 0 -44.16 -124.1 -13.72 0 0 124.1 -30.65 0 0 -307.64 61.71 0c5.64,0 10.99,2.38 16.03,7.16 5.04,4.77 9.41,11.28 13.11,19.52 3.7,8.25 6.62,17.94 8.77,29.07 2.15,11.14 3.23,23.08 3.23,35.8zm-44.97 32.11c3.9,0 7.26,-3.11 10.08,-9.33 2.82,-6.22 4.23,-13.81 4.23,-22.78 0,-8.67 -1.41,-16.12 -4.23,-22.34 -2.82,-6.22 -6.18,-9.33 -10.08,-9.33l-27.23 0 0 63.78 27.23 0zm258.92 124.1c6.45,0 12.77,-3.18 18.96,-9.54 6.18,-6.37 12.43,-17.07 18.75,-32.12l19.76 40.36c-7.93,21.99 -16.97,38.62 -27.12,49.9 -10.15,11.28 -20.6,16.92 -31.36,16.92 -9.68,0 -18.75,-4.27 -27.22,-12.8 -8.47,-8.53 -15.83,-20.03 -22.08,-34.5 -6.25,-14.46 -11.16,-31.31 -14.72,-50.55 -3.57,-19.23 -5.35,-39.7 -5.35,-61.39 0,-21.7 1.85,-42.09 5.55,-61.19 3.7,-19.09 8.7,-35.87 15.02,-50.33 6.32,-14.46 13.78,-25.89 22.38,-34.28 8.61,-8.39 17.75,-12.58 27.43,-12.58 9.01,0 17.58,3.61 25.71,10.85 8.13,7.23 16.1,19.23 23.9,36.01l-17.75 46.43c-5.65,-11.28 -10.99,-18.88 -16.03,-22.78 -5.04,-3.91 -10.32,-5.86 -15.83,-5.86 -5.51,0 -10.72,2.46 -15.63,7.38 -4.91,4.92 -9.17,11.57 -12.8,19.96 -3.63,8.39 -6.49,18.29 -8.57,29.72 -2.09,11.43 -3.13,23.65 -3.13,36.67 0,13.01 1.04,25.16 3.13,36.45 2.08,11.28 4.94,21.18 8.57,29.72 3.63,8.53 7.89,15.26 12.8,20.17 4.91,4.92 10.12,7.38 15.63,7.38zm103.45 0l58.68 0 0 59.88 -89.33 0 0 -307.64 30.65 0 0 247.76zm70.37 -247.76l89.34 0 0 59.88 -58.68 0 0 55.54 51.62 0 0 59.88 -51.62 0 0 72.46 58.68 0 0 59.88 -89.34 0 0 -307.64zm196.41 0l59.69 307.64 -33.07 0 -12.9 -65.95 -60.7 0 -12.71 65.95 -33.27 0 59.69 -307.64 33.27 0zm2.22 181.81l-18.75 -96.76 -18.76 96.76 37.51 0zm169.19 -181.81l30.65 0 0 307.64 -29.24 0 -68.56 -200.9 0 200.9 -30.65 0 0 -307.64 28.63 0 69.17 202.2 0 -202.2z"/>
  <path  fill-rule="nonzero" d="M848.35 603.73l55.36 0 0 34.43 -84.27 0 0 -176.9 28.91 0 0 142.47zm149.14 -142.47l56.31 176.9 -31.2 0 -12.17 -37.93 -57.26 0 -11.99 37.93 -31.38 0 56.3 -176.9 31.39 0zm2.09 104.54l-17.69 -55.64 -17.69 55.64 35.38 0zm155.42 -104.54l31.38 0 -56.87 176.9 -31.77 0 -56.69 -176.9 31.39 0 41.28 132.24 41.28 -132.24zm106.33 0l56.31 176.9 -31.2 0 -12.17 -37.93 -57.26 0 -11.98 37.93 -31.39 0 56.31 -176.9 31.38 0zm2.1 104.54l-17.69 -55.64 -17.7 55.64 35.39 0zm159.6 -104.54l28.91 0 0 176.9 -27.58 0 -64.68 -115.52 0 115.52 -28.91 0 0 -176.9 27.01 0 65.25 116.27 0 -116.27zm101.29 0c9.77,0 18.42,2.33 25.9,6.99 7.52,4.66 13.76,10.97 18.77,18.96 5.01,7.98 8.85,17.38 11.45,28.19 2.6,10.81 3.9,22.29 3.9,34.44 0,12.3 -1.37,23.82 -4.09,34.55 -2.73,10.73 -6.53,20.09 -11.35,28.07 -4.82,7.98 -10.53,14.26 -17.15,18.84 -6.6,4.57 -13.76,6.86 -21.53,6.86l-60.4 0 0 -176.9 54.5 0zm0.1 142.47c5.45,0 10.11,-1.46 13.98,-4.37 3.87,-2.91 7.07,-6.82 9.61,-11.81 2.53,-4.99 4.4,-10.73 5.61,-17.17 1.2,-6.49 1.8,-13.27 1.8,-20.42 0,-7.15 -0.57,-13.97 -1.71,-20.54 -1.14,-6.57 -2.98,-12.31 -5.51,-17.3 -2.54,-4.99 -5.77,-8.94 -9.71,-11.94 -3.93,-2.99 -8.62,-4.49 -14.07,-4.49l-25.68 0 0 108.04 25.68 0zm75.33 -142.47l84.27 0 0 34.43 -55.36 0 0 31.94 48.7 0 0 34.43 -48.7 0 0 41.67 55.36 0 0 34.43 -84.27 0 0 -176.9zm199.35 52.65c0,5.65 -0.6,11.02 -1.8,16.09 -1.21,5.07 -2.89,9.73 -5.05,13.97 -2.15,4.24 -4.75,7.98 -7.79,11.23 -3.05,3.24 -6.35,5.86 -9.9,7.86l44.71 75.1 -33.67 0 -41.66 -71.36 -12.94 0 0 71.36 -28.91 0 0 -176.9 58.21 0c5.32,0 10.37,1.37 15.12,4.12 4.76,2.74 8.88,6.48 12.37,11.22 3.48,4.74 6.24,10.32 8.27,16.72 2.03,6.41 3.04,13.27 3.04,20.59zm-42.42 18.46c3.68,0 6.85,-1.79 9.51,-5.37 2.67,-3.57 4,-7.94 4,-13.09 0,-4.99 -1.33,-9.28 -4,-12.85 -2.66,-3.58 -5.83,-5.37 -9.51,-5.37l-25.68 0 0 36.68 25.68 0zm125.17 -71.11l0 31.94 -10.08 0 0 113.27 10.08 0 0 31.69 -49.08 0 0 -31.69 10.08 0 0 -113.27 -10.08 0 0 -31.94 49.08 0zm100.63 0l56.31 176.9 -31.2 0 -12.17 -37.93 -57.26 0 -11.99 37.93 -31.38 0 56.3 -176.9 31.39 0zm2.09 104.54l-17.69 -55.64 -17.69 55.64 35.38 0z"/>
 </g>
</svg>
