<?xml version="1.0" encoding="UTF-8"?>
<!DOCTYPE svg PUBLIC "-//W3C//DTD SVG 1.1//EN" "http://www.w3.org/Graphics/SVG/1.1/DTD/svg11.dtd">
<!-- Creator: CorelDRAW 2020 (64-Bit) -->
<svg xmlns="http://www.w3.org/2000/svg" xml:space="preserve" width="2421px" height="741px" version="1.1" shape-rendering="geometricPrecision" text-rendering="geometricPrecision" image-rendering="optimizeQuality" fill-rule="evenodd" clip-rule="evenodd"
viewBox="0 0 2421 740.92"
 xmlns:xlink="http://www.w3.org/1999/xlink"
 xmlns:xodm="http://www.corel.com/coreldraw/odm/2003">
 <g id="Capa_x0020_1">
  <metadata id="CorelCorpID_0Corel-Layer"/>
  <path id="Master_x0020_Clean" fill-rule="nonzero" stroke="#373435" stroke-width="2.36" stroke-miterlimit="22.9256" d="M944.78 88.44l28.87 0 0 307.64 -30.65 0 0 -203.07 -34.08 102.84 -24.4 0 -34.48 -99.8 0 200.03 -30.65 0 0 -307.64 29.07 0 48.46 141.89 47.86 -141.89zm135.55 0l59.68 307.64 -33.07 0 -12.9 -65.95 -60.7 0 -12.7 65.95 -33.28 0 59.69 -307.64 33.28 0zm2.21 181.81l-18.75 -96.76 -18.75 96.76 37.5 0zm162.33 -32.55c5.65,7.23 9.95,16.49 12.91,27.77 2.96,11.29 4.44,24.3 4.44,39.06 0,13.88 -1.55,26.83 -4.64,38.83 -3.09,12.01 -7.46,22.64 -13.11,31.89 -5.11,8.39 -10.92,14.83 -17.44,19.31 -6.52,4.49 -13.41,6.87 -20.67,7.16 -7.26,0 -14.18,-2.17 -20.77,-6.51 -6.59,-4.34 -12.44,-10.84 -17.54,-19.52 -7.67,-12.44 -12.91,-27.49 -15.73,-45.13l28.23 -28.2c0,2.89 0.47,6.5 1.41,10.84 0.94,4.34 2.42,8.54 4.44,12.59 2.01,4.05 4.63,7.52 7.86,10.41 3.23,2.89 7.19,4.34 11.9,4.34 3.76,0 7.09,-1.01 9.98,-3.04 2.89,-2.02 5.31,-4.55 7.26,-7.59 1.95,-3.04 3.43,-6.51 4.44,-10.41 1,-3.91 1.51,-7.89 1.51,-11.94 0,-4.62 -0.71,-8.97 -2.12,-13.02 -1.41,-4.04 -3.6,-7.23 -6.55,-9.54 -5.38,-4.05 -11.06,-7.45 -17.04,-10.2 -5.99,-2.74 -11.8,-6.22 -17.45,-10.41 -5.64,-4.2 -10.89,-9.76 -15.72,-16.71 -4.84,-6.94 -8.68,-16.63 -11.5,-29.07 -2.55,-10.99 -3.83,-22.71 -3.83,-35.15 0,-13.88 1.51,-27.33 4.54,-40.35 3.02,-13.02 7.16,-24.01 12.4,-32.98 4.97,-8.38 10.55,-14.82 16.74,-19.31 6.18,-4.48 12.7,-6.72 19.56,-6.72 6.85,0 13.41,2.17 19.66,6.51 6.25,4.34 11.86,10.7 16.83,19.09 4.85,7.81 8.68,16.92 11.5,27.34l-22.99 33.84c-2.82,-8.39 -6.35,-15.11 -10.59,-20.18 -4.23,-5.06 -8.97,-7.59 -14.21,-7.59 -7.26,0 -12.87,3.47 -16.84,10.41 -3.97,6.95 -5.95,16.06 -5.95,27.34 0,5.21 1.11,9.84 3.33,13.89 2.22,4.05 5.11,7.66 8.67,10.84 3.56,3.19 7.56,6.01 12,8.47 4.43,2.45 8.84,4.91 13.21,7.37 4.37,2.46 8.5,4.99 12.4,7.59 3.9,2.61 7.05,5.5 9.47,8.68zm28.44 -149.26l103.65 0 0 59.88 -36.5 0 0 247.76 -30.65 0 0 -247.76 -36.5 0 0 -59.88zm117.76 0l89.34 0 0 59.88 -58.68 0 0 55.54 51.62 0 0 59.88 -51.62 0 0 72.46 58.68 0 0 59.88 -89.34 0 0 -307.64zm211.34 91.55c0,9.84 -0.64,19.17 -1.92,27.99 -1.28,8.82 -3.06,16.92 -5.34,24.3 -2.29,7.38 -5.04,13.88 -8.27,19.53 -3.23,5.64 -6.72,10.19 -10.49,13.66l47.39 130.61 -35.69 0 -44.16 -124.1 -13.72 0 0 124.1 -30.65 0 0 -307.64 61.71 0c5.64,0 10.99,2.38 16.03,7.16 5.04,4.77 9.41,11.28 13.11,19.52 3.7,8.25 6.62,17.94 8.77,29.07 2.15,11.14 3.23,23.08 3.23,35.8zm-44.97 32.11c3.9,0 7.26,-3.11 10.08,-9.33 2.82,-6.22 4.23,-13.81 4.23,-22.78 0,-8.67 -1.41,-16.12 -4.23,-22.34 -2.82,-6.22 -6.18,-9.33 -10.08,-9.33l-27.23 0 0 63.78 27.23 0zm258.92 124.1c6.45,0 12.77,-3.18 18.96,-9.54 6.18,-6.37 12.43,-17.07 18.75,-32.12l19.76 40.36c-7.93,21.99 -16.97,38.62 -27.12,49.9 -10.15,11.28 -20.6,16.92 -31.36,16.92 -9.68,0 -18.75,-4.27 -27.22,-12.8 -8.47,-8.53 -15.83,-20.03 -22.08,-34.5 -6.25,-14.46 -11.16,-31.31 -14.72,-50.55 -3.57,-19.23 -5.35,-39.7 -5.35,-61.39 0,-21.7 1.85,-42.09 5.55,-61.19 3.7,-19.09 8.7,-35.87 15.02,-50.33 6.32,-14.46 13.78,-25.89 22.38,-34.28 8.61,-8.39 17.75,-12.58 27.43,-12.58 9.01,0 17.58,3.61 25.71,10.85 8.13,7.23 16.1,19.23 23.9,36.01l-17.75 46.43c-5.65,-11.28 -10.99,-18.88 -16.03,-22.78 -5.04,-3.91 -10.32,-5.86 -15.83,-5.86 -5.51,0 -10.72,2.46 -15.63,7.38 -4.91,4.92 -9.17,11.57 -12.8,19.96 -3.63,8.39 -6.49,18.29 -8.57,29.72 -2.09,11.43 -3.13,23.65 -3.13,36.67 0,13.01 1.04,25.16 3.13,36.45 2.08,11.28 4.94,21.18 8.57,29.72 3.63,8.53 7.89,15.26 12.8,20.17 4.91,4.92 10.12,7.38 15.63,7.38zm103.45 0l58.68 0 0 59.88 -89.33 0 0 -307.64 30.65 0 0 247.76zm70.37 -247.76l89.34 0 0 59.88 -58.68 0 0 55.54 51.62 0 0 59.88 -51.62 0 0 72.46 58.68 0 0 59.88 -89.34 0 0 -307.64zm196.41 0l59.69 307.64 -33.07 0 -12.9 -65.95 -60.7 0 -12.71 65.95 -33.27 0 59.69 -307.64 33.27 0zm2.22 181.81l-18.75 -96.76 -18.76 96.76 37.51 0zm169.19 -181.81l30.65 0 0 307.64 -29.24 0 -68.56 -200.9 0 200.9 -30.65 0 0 -307.64 28.63 0 69.17 202.2 0 -202.2z"/>
  <path  fill-rule="nonzero" stroke="#373435" stroke-width="2.36" stroke-miterlimit="22.9256" d="M848.35 603.73l55.36 0 0 34.43 -84.27 0 0 -176.9 28.91 0 0 142.47zm149.14 -142.47l56.31 176.9 -31.2 0 -12.17 -37.93 -57.26 0 -11.99 37.93 -31.38 0 56.3 -176.9 31.39 0zm2.09 104.54l-17.69 -55.64 -17.69 55.64 35.38 0zm155.42 -104.54l31.38 0 -56.87 176.9 -31.77 0 -56.69 -176.9 31.39 0 41.28 132.24 41.28 -132.24zm106.33 0l56.31 176.9 -31.2 0 -12.17 -37.93 -57.26 0 -11.98 37.93 -31.39 0 56.31 -176.9 31.38 0zm2.1 104.54l-17.69 -55.64 -17.7 55.64 35.39 0zm159.6 -104.54l28.91 0 0 176.9 -27.58 0 -64.68 -115.52 0 115.52 -28.91 0 0 -176.9 27.01 0 65.25 116.27 0 -116.27zm101.29 0c9.77,0 18.42,2.33 25.9,6.99 7.52,4.66 13.76,10.97 18.77,18.96 5.01,7.98 8.85,17.38 11.45,28.19 2.6,10.81 3.9,22.29 3.9,34.44 0,12.3 -1.37,23.82 -4.09,34.55 -2.73,10.73 -6.53,20.09 -11.35,28.07 -4.82,7.98 -10.53,14.26 -17.15,18.84 -6.6,4.57 -13.76,6.86 -21.53,6.86l-60.4 0 0 -176.9 54.5 0zm0.1 142.47c5.45,0 10.11,-1.46 13.98,-4.37 3.87,-2.91 7.07,-6.82 9.61,-11.81 2.53,-4.99 4.4,-10.73 5.61,-17.17 1.2,-6.49 1.8,-13.27 1.8,-20.42 0,-7.15 -0.57,-13.97 -1.71,-20.54 -1.14,-6.57 -2.98,-12.31 -5.51,-17.3 -2.54,-4.99 -5.77,-8.94 -9.71,-11.94 -3.93,-2.99 -8.62,-4.49 -14.07,-4.49l-25.68 0 0 108.04 25.68 0zm75.33 -142.47l84.27 0 0 34.43 -55.36 0 0 31.94 48.7 0 0 34.43 -48.7 0 0 41.67 55.36 0 0 34.43 -84.27 0 0 -176.9zm199.35 52.65c0,5.65 -0.6,11.02 -1.8,16.09 -1.21,5.07 -2.89,9.73 -5.05,13.97 -2.15,4.24 -4.75,7.98 -7.79,11.23 -3.05,3.24 -6.35,5.86 -9.9,7.86l44.71 75.1 -33.67 0 -41.66 -71.36 -12.94 0 0 71.36 -28.91 0 0 -176.9 58.21 0c5.32,0 10.37,1.37 15.12,4.12 4.76,2.74 8.88,6.48 12.37,11.22 3.48,4.74 6.24,10.32 8.27,16.72 2.03,6.41 3.04,13.27 3.04,20.59zm-42.42 18.46c3.68,0 6.85,-1.79 9.51,-5.37 2.67,-3.57 4,-7.94 4,-13.09 0,-4.99 -1.33,-9.28 -4,-12.85 -2.66,-3.58 -5.83,-5.37 -9.51,-5.37l-25.68 0 0 36.68 25.68 0zm125.17 -71.11l0 31.94 -10.08 0 0 113.27 10.08 0 0 31.69 -49.08 0 0 -31.69 10.08 0 0 -113.27 -10.08 0 0 -31.94 49.08 0zm100.63 0l56.31 176.9 -31.2 0 -12.17 -37.93 -57.26 0 -11.99 37.93 -31.38 0 56.3 -176.9 31.39 0zm2.09 104.54l-17.69 -55.64 -17.69 55.64 35.38 0z"/>
  <g id="_2945911546336">
   <path fill-rule="nonzero" d="M41.82 361.84l0 324.24 328.05 0 328.04 0 0 -324.24 0 -324.24 -328.04 0 -328.05 0 0 324.24zm635.99 -251.89l0 56.65 -308.86 0 -308.85 0 0 -56.65 0 -56.66 308.85 0 308.86 0 0 56.66zm0 237.07l0 166.48 -308.86 0 -308.85 0 0 -166.48 0 -166.47 308.85 0 308.86 0 0 166.47zm-593.95 195.25l12.06 11.5 11.33 -11.5c6.21,-6.45 12.43,-11.34 13.52,-10.99 1.83,0.7 2.38,7.67 2.38,27.72 0,29.29 -0.18,29.64 -11.15,27.02 -4.02,-1.04 -4.38,-1.92 -4.38,-11.85l0 -10.81 -6.22 5.75 -6.39 5.93 -5.49 -5.4 -5.66 -5.23 -0.37 5.4c-0.18,3.14 -0.36,7.32 -0.36,9.41 -0.19,5.41 -3.48,7.85 -9.51,7.15l-5.3 -0.52 -0.54 -25.28c-0.55,-24.75 0,-29.63 2.74,-29.63 0.73,0 6.76,5.05 13.34,11.33l0 0zm82.24 -1.75c13.52,25.98 20.28,41.32 19.37,43.58 -1.46,3.66 -9.69,3.14 -13.89,-0.87 -5.3,-5.05 -21.75,-4.88 -26.5,0 -4.75,5.06 -14.8,4.18 -14.26,-1.04 0.19,-2.1 5.85,-14.47 12.25,-27.55 13.71,-27.19 15.53,-28.41 23.03,-14.12l0 0zm58.48 -6.97c5.66,2.79 9.14,7.5 9.14,12.03 0,2.09 -1.83,2.79 -7.13,2.79 -4.02,0 -7.86,-0.87 -8.41,-1.75 -0.55,-1.04 -3.47,-1.74 -6.58,-1.74 -7.67,0 -7.49,6.28 0.19,7.67 3.1,0.52 8.04,1.57 10.96,2.09 8.04,1.4 12.79,6.98 12.79,14.82 0,11.68 -12.79,19.17 -28.87,16.73 -7.49,-1.21 -17.36,-10.11 -16.45,-14.81 0.73,-4.01 10.05,-4.88 14.26,-1.22 4.02,3.48 15.53,2.96 15.53,-0.87 0,-1.57 -3.47,-3.14 -10.78,-4.54 -13.34,-2.61 -18.46,-6.97 -18.46,-16.21 0,-7.15 4.2,-13.42 10.96,-16.04 6.04,-2.26 17.18,-1.74 22.85,1.05zm57.57 4.36c0,5.58 -0.55,6.1 -6.4,6.97l-6.4 0.87 -0.54 19.53c-0.55,19.17 -0.55,19.7 -4.94,20.74 -9.14,2.09 -9.87,0.52 -10.42,-20.57l-0.54 -19.7 -6.4 -0.87c-4.93,-0.7 -6.58,-1.74 -6.95,-4.88 -1.27,-8.72 -0.18,-9.24 21.94,-8.72l20.65 0.53 0 6.1 0 0zm42.03 0l0 6.1 -9.69 0.52c-8.04,0.52 -9.68,1.05 -9.13,3.49 0.36,2.27 2.74,3.14 9.32,3.48 8.4,0.53 8.59,0.7 8.59,6.63l0 5.93 -9.14 0c-8.59,0 -9.14,0.34 -9.14,4.35 0,4.19 0.55,4.36 10.05,4.36 9.14,0 10.05,0.35 11.15,4.36 2.01,7.67 -1.64,9.59 -18.28,9.59 -9.13,0 -15.9,-0.87 -17.18,-2.09 -2.37,-2.27 -3.28,-50.38 -0.91,-52.65 0.73,-0.7 8.77,-0.87 17.91,-0.7l16.45 0.53 0 6.1 0 0zm50.26 -0.87c7.49,6.79 8.77,14.81 3.83,22.66 -4.75,7.84 -4.75,8.19 0.92,16.56 5.48,7.84 4.57,10.46 -3.47,10.46 -7.31,0 -8.59,-1.05 -13.89,-9.24 -5.85,-9.07 -11.15,-8.89 -11.15,0.52 0,6.1 -0.55,6.98 -4.94,8.02 -9.5,2.27 -10.6,0 -11.14,-26.32 -0.37,-17.09 0.18,-24.58 1.82,-26.5 1.83,-2.09 5.49,-2.44 17.37,-1.92 13.7,0.7 15.71,1.22 20.65,5.76l0 0zm77.49 -3.66c6.39,2.61 13.88,10.98 13.88,15.68 0,4.36 -13.16,3.84 -17.36,-0.69 -3.84,-4.01 -12.97,-4.54 -17.91,-0.87 -1.83,1.22 -3.84,5.4 -4.38,9.06 -2.01,13.95 13.34,21.79 23.21,11.85 4.75,-4.88 14.07,-5.92 15.71,-1.74 1.65,4.01 -5.11,13.6 -12.06,17.08 -8.22,4.01 -23.76,3.32 -30.52,-1.56 -9.5,-6.8 -12.43,-12.38 -12.43,-23.36 0.19,-11.51 3.29,-17.26 13.71,-24.06 6.95,-4.53 18.82,-5.06 28.15,-1.39zm37.28 18.82l0.55 20.4 9.5 0.52 9.5 0.52 0 6.1 0 6.11 -15.35 0.52c-8.41,0.35 -16.08,-0.18 -16.81,-0.87 -0.92,-0.87 -2.01,-12.2 -2.75,-25.28 -1.46,-27.02 -0.54,-29.81 9.14,-28.94l5.67 0.53 0.55 20.39 0 0zm63.41 -14.29l0 6.1 -10.05 0.87c-5.48,0.52 -9.87,1.39 -9.5,2.09 0.18,0.87 0.36,2.09 0.36,3.14 0,0.87 4.21,1.74 9.14,1.74l9.14 0 0 6.1 0 6.11 -8.96 0c-6.39,0 -9.32,0.69 -10.05,2.78 -1.83,4.71 0.55,5.93 10.97,5.93l10.05 0 -0.55 6.45 -0.55 6.63 -13.7 0.52c-23.4,0.87 -21.93,2.79 -21.93,-27.37 0,-14.12 0.55,-26.32 1.28,-27.02 0.73,-0.7 8.77,-0.87 17.91,-0.7l16.44 0.53 0 6.1 0 0zm45.87 9.93c4.57,9.42 10.42,21.27 12.8,26.33 2.56,5.05 4.02,9.93 3.47,10.81 -2.01,3.13 -11.7,1.91 -14.99,-1.75 -2.56,-2.79 -5.48,-3.49 -13.34,-3.49 -7.86,0 -10.78,0.7 -13.34,3.49 -4.2,4.88 -14.07,4.88 -14.07,0 0,-1.92 0.73,-4.88 1.83,-6.62 2.19,-3.66 18.09,-36.26 20.28,-41.84 0.92,-2.27 3.11,-3.84 5.3,-3.84 2.93,0 5.48,3.66 12.06,16.91l0 0zm41.86 -4.53l13.52 12.38 0.91 -5.75c0.55,-3.32 0.73,-8.02 0.37,-10.64 -0.73,-5.92 2.56,-8.71 9.32,-8.02 4.93,0.53 5.12,0.87 6.03,13.6 1.28,18.48 -0.37,40.97 -3.11,40.97 -1.09,0 -7.86,-5.23 -14.98,-11.86 -7.13,-6.45 -13.16,-11.68 -13.71,-11.68 -0.55,0 -1.1,5.23 -1.46,11.68l-0.55 11.86 -7.31 0 -7.31 0 -0.55 -25.28c-0.18,-13.77 0,-26.15 0.37,-27.37 1.83,-4.18 5.12,-2.27 18.46,10.11l0 0zm-161.2 72.35c2.02,2.09 -3.28,7.67 -7.31,7.67 -4.75,0 -4.93,-0.53 -2.37,-5.41 1.83,-3.14 7.31,-4.53 9.68,-2.26zm-280.16 24.23l0 13.07 6.4 0c5.66,0 6.4,0.52 6.4,4.36 0,4.36 -0.19,4.53 -11.34,4.01l-11.51 -0.53 -0.55 -14.64c-0.55,-17.43 0,-19.35 6.03,-19.35 4.57,0 4.57,0.18 4.57,13.08zm41.85 1.91c8.78,17.61 9.14,19.88 2.93,19.88 -2.56,0 -4.57,-0.87 -4.57,-1.75 0,-2.26 -14.07,-2.26 -15.54,0 -1.64,2.44 -10.05,2.1 -10.05,-0.35 0,-4.18 15.17,-32.77 17.36,-32.77 1.28,0 5.67,6.8 9.87,14.99zm21.39 -6.27c1.82,4.71 3.65,8.71 4.2,8.71 0.73,0 2.92,-4 5.12,-8.71 2.74,-6.1 5.11,-8.72 7.49,-8.72 1.83,0 3.84,0.35 4.39,1.05 0.54,0.52 -2.2,8.37 -6.4,17.43 -4.94,10.81 -8.41,16.39 -10.24,16.39 -2.01,0 -5.48,-5.58 -10.41,-16.56 -4.21,-9.07 -7.13,-16.91 -6.58,-17.44 0.55,-0.52 2.74,-0.87 5.12,-0.87 3.1,0 4.75,1.75 7.31,8.72l0 0zm50.98 8.71l8.23 16.57 -4.75 0.52c-2.75,0.35 -5.67,-0.18 -6.77,-1.22 -2.55,-2.44 -13.52,-2.44 -14.98,-0.18 -1.46,2.27 -10.05,2.27 -10.05,0.18 0,-0.87 1.46,-5.06 3.47,-9.24 8.95,-20.05 11.51,-24.23 14.07,-23.71 1.46,0.35 6.4,8.02 10.78,17.08zm23.21 -9.24l8.78 8.2 0 -8.37c0,-8.02 0.18,-8.19 5.11,-7.67l4.94 0.52 0.55 16.91c0.54,19.88 -0.55,20.92 -11.52,10.11 -3.84,-3.83 -7.86,-6.97 -8.59,-6.97 -0.73,0 -1.46,3.14 -1.46,6.97 0,6.63 -0.36,6.98 -5.48,6.98l-5.48 0 0 -16.22c0,-14.99 0.73,-18.65 3.47,-18.65 0.55,0 4.93,3.66 9.68,8.2l0 -0.01zm51.36 -4c8.59,7.49 8.77,18.47 0.36,26.49 -3.65,3.32 -6.21,4.19 -14.25,4.19 -11.7,0 -12.25,-0.87 -12.25,-18.66 0,-15.51 0.55,-16.21 11.88,-16.21 7.5,0 10.42,0.87 14.26,4.19l0 0zm35.09 0.17c0,2.79 -1.47,3.66 -6.77,4.01 -8.59,0.7 -9.13,3.49 -0.91,4.18 4.39,0.35 6.03,1.4 6.4,4.36 0.55,3.14 -0.37,3.84 -5.3,4.36 -8.59,0.7 -8.96,4.53 -0.37,5.23 5.67,0.35 7.13,1.22 7.49,4.53 0.55,3.84 0.19,4.01 -11.88,3.49l-12.42 -0.53 -0.55 -14.64c-0.37,-8.02 0,-15.86 0.37,-17.08 0.73,-1.74 4.02,-2.27 12.42,-1.92 10.05,0.52 11.52,0.87 11.52,4.01l0 0zm31.43 0.17c3.66,3.49 4.39,5.41 3.47,9.94 -0.55,2.96 -2.01,5.93 -3.1,6.45 -1.1,0.87 -0.37,3.49 2.01,7.5l4.02 6.45 -6.22 0c-4.93,0 -6.76,-1.05 -9.5,-5.23 -3.47,-5.93 -6.58,-5.41 -6.58,1.04 0,3.32 -0.91,4.19 -4.57,4.19l-4.57 0 0 -17.44 0 -17.43 10.06 0c8.59,0 10.96,0.7 14.98,4.53l0 0zm27.41 -1.74c0.74,1.74 -0.18,3.84 -1.82,5.06 -2.01,1.39 -3.11,4.7 -3.11,9.58 0,4.89 1.1,8.2 3.11,9.59 5.66,4.01 1.64,7.85 -8.59,7.85 -8.04,0 -9.14,-0.53 -9.14,-3.49 0,-1.92 1.28,-4.01 2.74,-4.53 4.02,-1.57 3.66,-16.21 -0.37,-19 -5.48,-3.84 -1.64,-7.85 7.68,-7.85 6.03,0 8.59,0.87 9.5,2.79l0 0zm30.89 13.77c4.39,9.07 8.04,16.91 8.04,17.44 0,0.52 -2.38,0.87 -5.48,0.87 -2.93,0 -5.49,-0.87 -5.49,-1.75 0,-2.26 -14.07,-2.26 -15.53,0 -1.46,2.1 -10.05,2.27 -10.05,0.18 0,-4.19 15.53,-33.3 17.73,-33.3 1.46,0 6.21,7.32 10.78,16.56zm33.99 -13.59c6.4,5.4 2.56,11.33 -4.93,7.49 -5.12,-2.61 -12.61,-0.87 -8.23,1.74 1.46,1.05 4.39,1.75 6.4,1.75 11.33,0 16.08,12.9 7.13,18.65 -6.77,4.18 -16.45,3.84 -21.2,-0.7 -4.94,-4.88 -3.29,-10.11 2.74,-8.36 8.95,2.61 12.24,2.96 12.24,1.22 0,-1.05 -2.92,-2.44 -6.39,-3.14 -8.04,-1.4 -11.88,-4.88 -11.88,-10.46 0,-9.59 16.08,-15.17 24.12,-8.19l0 0z"/>
   <path fill-rule="nonzero" d="M589.36 75.08c-20.47,6.98 -30.71,31.21 -21.2,51.08 16.26,34.17 71.27,26.15 74.56,-10.81 1.1,-13.94 -0.73,-20.39 -8.22,-28.94 -11.52,-12.9 -28.33,-17.08 -45.14,-11.33zm28.51 20.4c11.33,7.49 10.6,25.8 -1.1,32.77 -18.28,10.63 -39.84,-4.53 -33.08,-23.36 4.93,-13.77 21.02,-18.13 34.18,-9.41l0 0z"/>
   <path fill-rule="nonzero" d="M94.82 111.69l0 37.48 120.62 0 120.62 0 0 -37.48 0 -37.48 -120.62 0 -120.62 0 0 37.48zm224.79 -0.87l0 20.92 -104.17 0 -104.17 0 0 -20.92 0 -20.92 104.17 0 104.17 0 0 20.92z"/>
   <path fill-rule="nonzero" d="M486.83 77.17c-28.51,14.12 -30.7,49.69 -4.2,66.25 6.58,4.18 9.32,4.88 21.38,4.88 12.24,0 14.8,-0.7 21.75,-5.06 24.12,-15.51 23.57,-48.98 -1.1,-63.97 -7.13,-4.36 -10.23,-5.06 -20.28,-5.06 -7.31,0.17 -14.26,1.22 -17.55,2.96zm29.61 16.22c8.04,4.53 11.33,14.81 7.67,23.7 -3.65,9.07 -10.96,13.78 -21.2,13.6 -7.31,-0.17 -9.32,-1.04 -14.8,-6.8 -5.66,-5.92 -6.21,-7.14 -5.48,-14.99 0.91,-8.89 4.93,-14.82 11.51,-17.43 6.4,-2.44 16.27,-1.57 22.3,1.92l0 0z"/>
   <path fill-rule="nonzero" d="M336.06 240.34c-19.01,5.4 -31.62,12.38 -46.06,25.45 -15.53,13.95 -25.58,28.42 -31.98,46.37 -4.57,12.2 -5.12,16.56 -5.12,34.86 0.19,18.31 0.74,22.67 5.3,35.39 14.08,39.92 49.35,67.99 93.39,74.96 15.54,2.44 19.01,2.44 34.36,0 44.96,-6.97 78.77,-33.82 93.94,-74.96 4.2,-11.15 4.93,-15.51 4.93,-34.51 0,-19 -0.73,-23.54 -4.93,-35.74 -6.22,-17.61 -16.27,-32.25 -31.99,-46.37 -22.47,-20.22 -47.69,-29.46 -79.86,-29.29 -13.34,0 -21.93,1.05 -31.98,3.84l0 0zm65.06 14.29c38.01,11.34 66.16,45.33 69.63,83.85 1.28,14.12 -0.73,32.08 -3.29,32.08 -1.1,0 -4.02,-2.44 -6.58,-5.23 -6.94,-8.02 -15.9,-7.32 -25.22,1.74 -5.48,5.41 -8.59,6.98 -13.16,6.98 -4.75,0 -7.86,-1.57 -13.34,-6.98 -5.48,-5.4 -8.59,-6.97 -13.34,-6.97 -4.57,0 -7.68,1.57 -13.16,6.97 -5.66,5.58 -8.41,6.98 -13.71,6.98 -5.3,0 -8.04,-1.4 -13.7,-6.98 -5.49,-5.23 -8.59,-6.97 -13.16,-6.97 -4.39,0 -7.68,1.74 -13.16,6.97 -5.48,5.41 -8.59,6.98 -13.34,6.98 -4.75,0 -7.86,-1.57 -13.34,-6.98 -9.32,-9.06 -18.28,-9.76 -25.22,-1.74 -2.56,2.96 -5.48,5.23 -6.4,5.23 -0.91,0 -2.19,-3.66 -2.92,-8.02 -4.57,-32.6 5.12,-61.01 28.87,-83.68 28.51,-27.19 65.61,-35.9 104.54,-24.23l0 0z"/>
   <path fill-rule="nonzero" d="M357.44 260.04c-1.83,1.74 -1.64,7.32 0.37,8.37 2.56,1.56 7.49,-0.88 7.49,-3.66 0,-1.4 -0.73,-2.1 -1.65,-1.4 -1.09,0.52 -2.55,-0.35 -3.28,-1.74 -0.92,-1.57 -2.2,-2.09 -2.93,-1.57l0 0z"/>
   <path fill-rule="nonzero" d="M393.81 275.9c-2.38,2.27 -0.91,5.75 2.56,5.75 2.01,0 3.65,-0.52 3.65,-1.04 0,-1.92 -5.11,-5.75 -6.21,-4.71l0 0z"/>
   <path fill-rule="nonzero" d="M330.58 281.65c0,1.05 1.28,1.75 2.74,1.75 1.46,0 2.74,-0.35 2.74,-0.7 0,-0.35 -1.28,-1.05 -2.74,-1.74 -1.46,-0.53 -2.74,-0.18 -2.74,0.69z"/>
   <path fill-rule="nonzero" d="M359.09 286.19c-0.55,1.57 0,3.66 1.27,5.05 2.02,1.92 2.75,1.74 4.39,-0.7 1.65,-2.44 1.28,-3.48 -1.28,-5.05 -2.56,-1.57 -3.47,-1.4 -4.38,0.7z"/>
   <path fill-rule="nonzero" d="M301.52 290.2c-1.83,1.04 -1.83,1.74 -0.18,2.78 2.37,1.4 4.38,0.18 3.47,-2.44 -0.55,-1.04 -1.83,-1.22 -3.29,-0.34l0 0z"/>
   <path fill-rule="nonzero" d="M417.02 295.25c-1.65,2.62 -1.46,3.66 1.09,5.06 2.38,1.39 4.03,1.04 7.13,-1.22 3.48,-2.79 3.66,-3.14 0.73,-4.19 -1.64,-0.52 -4.02,-1.39 -4.93,-1.92 -1.1,-0.52 -2.74,0.53 -4.02,2.27z"/>
   <path fill-rule="nonzero" d="M317.05 297.69c-2.01,1.05 -9.14,6.1 -16.08,11.16 -6.76,5.05 -13.34,9.41 -14.44,9.76 -1.28,0.35 0.37,6.1 4.75,15.69l6.95 15.17 5.3 -3.49c2.92,-2.09 5.85,-3.14 6.39,-2.62 0.55,0.53 0.19,5.23 -1.09,10.29 -2.01,9.06 -1.46,15.17 1.64,15.17 0.92,0 2.74,0.52 4.39,1.04 1.64,0.52 6.03,-1.92 11.33,-6.62 7.31,-6.45 9.69,-7.5 16.26,-7.5 6.58,0 8.96,1.05 16.09,7.32 4.75,4.19 9.32,7.5 10.23,7.5 0.92,0 5.67,-3.14 10.24,-6.97 4.56,-3.84 10.6,-7.5 13.34,-8.02 2.74,-0.7 5.48,-2.09 6.21,-3.14 0.91,-1.22 3.29,-0.35 7.13,2.27 3.47,2.44 6.21,3.48 6.58,2.44 0.36,-1.05 4.38,-6.45 8.77,-12.03 4.57,-5.76 8.22,-10.81 8.22,-11.51 0,-2.26 -29.6,-30.85 -33.08,-31.9 -4.75,-1.39 -10.23,1.74 -13.52,8.02 -4.02,7.32 -15.17,18.65 -21.2,21.79 -5.85,2.79 -14.07,3.14 -18.09,0.7 -2.01,-1.22 -0.73,-1.74 4.75,-1.74 8.04,0 15.17,-4.02 23.58,-13.6l4.93 -5.58 -4.93 1.74c-10.42,3.84 -23.58,1.4 -31.8,-5.75l-4.39 -3.84 4.39 6.8c2.55,3.66 7.67,8.37 11.69,10.46 4.02,1.92 7.68,3.84 8.04,4.01 0.37,0.35 0.37,1.05 -0.36,1.57 -2.19,2.09 -14.07,-3.31 -19.19,-8.72 -2.93,-3.13 -6.76,-9.41 -8.77,-13.77 -3.66,-8.54 -7.13,-10.11 -14.26,-6.1l0 0z"/>
   <path fill-rule="nonzero" d="M374.44 297.34c0,0.87 1.28,1.75 2.92,1.75 1.46,0 2.19,-0.88 1.64,-1.75 -0.54,-1.04 -1.82,-1.74 -2.92,-1.74 -0.91,0 -1.64,0.7 -1.64,1.74z"/>
   <path fill-rule="nonzero" d="M282.15 307.8c-1.47,2.44 0.54,5.23 3.83,5.23 3.29,0 3.29,-1.39 0,-4.53 -1.64,-1.57 -3.1,-1.74 -3.83,-0.7z"/>
   <path fill-rule="nonzero" d="M444.61 317.39c-1.82,4.36 0.74,8.19 5.12,7.5 2.92,-0.35 4.39,-1.92 4.75,-4.89 0.37,-3.13 0,-3.66 -1.09,-1.91 -2.01,2.61 -6.58,1.04 -4.94,-1.75 0.73,-0.87 0.18,-1.57 -0.91,-1.57 -1.1,0 -2.38,1.22 -2.93,2.62l0 0z"/>
   <path fill-rule="nonzero" d="M441.87 342.49c-1.82,0.7 -2.37,2.27 -1.82,4.88 0.91,3.14 1.64,3.49 4.02,1.75 3.65,-2.62 1.82,-8.2 -2.2,-6.63z"/>
   <path fill-rule="nonzero" d="M279.4 348.77c0,1.39 1.28,2.61 2.75,2.61 1.46,0 2.74,-0.69 2.74,-1.57 0,-0.87 -1.28,-1.91 -2.74,-2.61 -1.65,-0.52 -2.75,0 -2.75,1.57z"/>
   <path fill-rule="nonzero" d="M156.41 559.52c-2.01,4.88 -1.46,6.28 2.38,6.28 4.2,0 4.56,-1.57 1.28,-5.93 -2.38,-3.13 -2.56,-3.13 -3.66,-0.35l0 0z"/>
   <path fill-rule="nonzero" d="M351.04 550.46c0.37,4.71 1.47,5.93 5.3,6.27 5.67,0.7 9.69,-3.48 8.05,-8.36 -0.92,-2.62 -2.75,-3.49 -7.5,-3.49 -6.21,0 -6.39,0.17 -5.85,5.58z"/>
   <path fill-rule="nonzero" d="M584.79 560.22c-2.74,4.88 -2.56,5.58 1.64,5.58 3.84,0 4.75,-2.79 2.01,-6.8 -1.28,-1.92 -2.01,-1.74 -3.65,1.22z"/>
   <path fill-rule="nonzero" d="M301.34 645.99c0,0.87 0.91,1.74 2.01,1.74 0.91,0 1.27,-0.87 0.73,-1.74 -0.55,-1.05 -1.47,-1.75 -2.01,-1.75 -0.37,0 -0.73,0.7 -0.73,1.75z"/>
   <path fill-rule="nonzero" d="M372.61 644.24c0,7.15 0.55,8.72 3.29,8.72 4.57,0 7.67,-3.49 7.67,-8.72 0,-5.22 -3.1,-8.71 -7.67,-8.71 -2.74,0 -3.29,1.57 -3.29,8.71z"/>
   <path fill-rule="nonzero" d="M438.4 638.84c0,2.79 1.1,3.66 4.75,3.66 6.03,0 5.48,-5.75 -0.73,-6.62 -3.11,-0.53 -4.02,0.35 -4.02,2.96l0 0z"/>
   <path fill-rule="nonzero" d="M500.54 645.99c0,0.87 0.91,1.74 1.82,1.74 1.1,0 1.83,-0.87 1.83,-1.74 0,-1.05 -0.73,-1.75 -1.83,-1.75 -0.91,0 -1.82,0.7 -1.82,1.75z"/>
  </g>
 </g>
</svg>
